<?xml version="1.0" encoding="iso-8859-1"?>
<!-- Generator: Adobe Illustrator 19.0.0, SVG Export Plug-In . SVG Version: 6.00 Build 0)  -->
<svg version="1.1" id="Layer_1" xmlns="http://www.w3.org/2000/svg" xmlns:xlink="http://www.w3.org/1999/xlink" x="0px" y="0px"
	 viewBox="0 0 365 365" style="enable-background:new 0 0 365 365;" xml:space="preserve">
<g id="XMLID_1552_">
	
		<polyline id="XMLID_180_" style="fill:none;stroke:#5FD2DB;stroke-width:30;stroke-linecap:round;stroke-linejoin:round;stroke-miterlimit:10;" points="
		182.499,105 182.499,45 142.499,15 	"/>
	<g id="XMLID_1553_">
		<path id="XMLID_1554_" style="fill:#FF5959;" d="M302.501,110h-240v29.001l27.832,209.017C91.572,357.726,99.834,365,109.621,365
			h145.76c9.787,0,18.048-7.274,19.288-16.982l27.832-209.017V110z"/>
		<path id="XMLID_178_" style="fill:#FFE165;" d="M311.016,139.001H53.986c-13.531,0-24.5-10.969-24.5-24.5l0,0
			c0-13.531,10.969-24.5,24.5-24.5h257.029c13.531,0,24.5,10.969,24.5,24.5l0,0C335.516,128.031,324.547,139.001,311.016,139.001z"
			/>
		<g id="XMLID_1555_">
			<circle id="XMLID_1556_" style="fill:#FFFEB9;" cx="182.501" cy="237.5" r="42.694"/>
			<rect id="XMLID_581_" x="120.181" y="212.631" style="fill:#FFFEB9;" width="124.641" height="49.738"/>
		</g>
	</g>
</g>
<g>
</g>
<g>
</g>
<g>
</g>
<g>
</g>
<g>
</g>
<g>
</g>
<g>
</g>
<g>
</g>
<g>
</g>
<g>
</g>
<g>
</g>
<g>
</g>
<g>
</g>
<g>
</g>
<g>
</g>
</svg>
