<?xml version="1.0" encoding="iso-8859-1"?>
<!-- Generator: Adobe Illustrator 19.0.0, SVG Export Plug-In . SVG Version: 6.00 Build 0)  -->
<svg version="1.1" id="Layer_1" xmlns="http://www.w3.org/2000/svg" xmlns:xlink="http://www.w3.org/1999/xlink" x="0px" y="0px"
	 viewBox="0 0 512 512" style="enable-background:new 0 0 512 512;" xml:space="preserve">
<path style="fill:#F7B239;" d="M464.444,195.33c-0.055-0.055-0.123-0.109-0.178-0.178l-21.26-21.26
	c7.492-2.98,15.135-5.592,22.9-7.807c16.433-4.717,25.949-21.834,21.26-38.267c-4.703-16.433-21.834-25.935-38.267-21.246
	c-18.156,5.195-35.793,12.1-52.664,20.549l-51.72-51.72c-48.808-48.795-128.214-48.795-177.022,0l-51.72,51.734l0,0l-0.014-0.014
	c-5.113-2.557-10.281-4.977-15.531-7.246c-12.072-5.223-24.472-9.68-37.133-13.303c-16.433-4.703-33.564,4.812-38.254,21.246
	s4.826,33.551,21.246,38.267c2.037,0.588,4.074,1.189,6.098,1.832c5.674,1.777,11.279,3.773,16.803,5.975h0.014l-21.383,21.383
	c-0.068,0.068-0.137,0.137-0.205,0.205c-63.287,63.505-63.218,166.686,0.205,230.096c31.746,31.746,73.445,47.619,115.157,47.619
	c32.662,0,65.337-9.748,93.228-29.23c27.877,19.496,60.552,29.23,93.228,29.23c41.699,0,83.412-15.873,115.157-47.619
	C527.854,362.113,527.868,258.823,464.444,195.33z M91.382,381.828c-39.347-39.347-39.361-103.386-0.041-142.761
	c0.014-0.014,0.027-0.014,0.041-0.027l33.797-33.797c18.484,13.713,35.109,30.023,49.177,48.412
	c30.406,39.744,47.687,86.693,50.326,136.499C185.102,420.929,127.722,418.167,91.382,381.828z M223.506,216.044
	c-15.709-20.535-33.988-39.006-54.222-54.906l41.959-41.972c24.678-24.678,64.832-24.678,89.509,0l41.972,41.972
	c-20.248,15.9-38.513,34.371-54.236,54.906c-12.674,16.584-23.529,34.152-32.484,52.513
	C247.049,250.196,236.18,232.628,223.506,216.044z M420.626,381.828c-36.34,36.34-93.734,39.101-133.3,8.326
	c2.639-49.82,19.92-96.755,50.312-136.499c14.068-18.389,30.707-34.699,49.191-48.412l33.66,33.66
	c0.055,0.055,0.109,0.109,0.164,0.164C459.987,278.44,459.974,342.48,420.626,381.828z"/>
<g>
	<path style="fill:#E09B2D;" d="M115.759,127.123c-5.113-2.557-10.281-4.977-15.531-7.246l-7.246,7.26l-40.797,40.783
		c5.674,1.777,11.279,3.773,16.803,5.975h0.014l46.771-46.758L115.759,127.123z"/>
	<path style="fill:#E09B2D;" d="M396.236,127.135l46.771,46.757h0.014c5.523-2.201,11.129-4.197,16.803-5.975l-40.797-40.783
		l-7.246-7.26c-5.25,2.27-10.418,4.689-15.531,7.246L396.236,127.135z"/>
</g>
<g>
</g>
<g>
</g>
<g>
</g>
<g>
</g>
<g>
</g>
<g>
</g>
<g>
</g>
<g>
</g>
<g>
</g>
<g>
</g>
<g>
</g>
<g>
</g>
<g>
</g>
<g>
</g>
<g>
</g>
</svg>
