<?xml version="1.0" encoding="iso-8859-1"?>
<!-- Generator: Adobe Illustrator 19.0.0, SVG Export Plug-In . SVG Version: 6.00 Build 0)  -->
<svg version="1.1" id="Layer_1" xmlns="http://www.w3.org/2000/svg" xmlns:xlink="http://www.w3.org/1999/xlink" x="0px" y="0px"
	 viewBox="0 0 511.999 511.999" style="enable-background:new 0 0 511.999 511.999;" xml:space="preserve">
<rect x="105.111" y="195.022" style="fill:#65513C;" width="314.595" height="185.45"/>
<rect x="105.111" y="294.354" style="fill:#EED898;" width="314.595" height="29.103"/>
<rect x="303.668" y="195.022" style="opacity:0.3;enable-background:new    ;" width="116.038" height="185.45"/>
<path style="fill:#EE9BAC;" d="M413.803,151.942c12.03,0,21.782,9.752,21.782,21.781v26.133c0,24.06-19.505,43.563-43.563,43.563
	c-24.058,0-43.564-19.503-43.564-43.563c0,24.06-19.503,43.563-43.563,43.563c-24.058,0-43.562-19.503-43.562-43.563
	c0,24.06-19.505,43.563-43.564,43.563s-43.561-19.503-43.561-43.563c0,24.06-19.505,43.563-43.565,43.563
	s-43.562-19.503-43.562-43.563v-26.133c0-12.03,9.752-21.781,21.781-21.781H413.803z"/>
<polygon style="fill:#004D7A;" points="447.367,475.982 75.3,475.982 56.877,420.114 465.79,420.114 "/>
<path style="fill:#006098;" d="M465.79,380.477H56.877c-10.944,0-19.818,8.873-19.818,19.819c0,10.945,8.874,19.818,19.818,19.818
	H465.79c10.944,0,19.818-8.873,19.818-19.818C485.608,389.35,476.734,380.477,465.79,380.477z"/>
<path style="fill:#7D868C;" d="M244.24,389.754c-19.771-19.772-47.698-25.359-69.014-15.75L68.897,257.325
	c-0.496-0.541-1.05-1.097-1.603-1.602c-9.979-9.096-25.444-8.378-34.54,1.602c-9.096,9.982-8.378,25.446,1.602,34.541
	l116.679,106.328c-9.61,21.317-4.021,49.243,15.75,69.014c24.642,24.641,84.78,50.102,106.168,28.715
	C294.341,474.533,268.88,414.394,244.24,389.754z"/>
<path style="fill:#FFB819;" d="M285.627,57.543c0-12.822-23.215-49.486-23.215-49.486s-23.215,36.664-23.215,49.486
	c0,12.821,10.392,23.215,23.215,23.215C275.234,80.758,285.627,70.364,285.627,57.543z"/>
<path style="fill:#022A3A;" d="M465.79,372.419h-38.024V237.046c9.775-9.398,15.876-22.591,15.876-37.19v-26.133
	c0-16.453-13.386-29.838-29.839-29.838H270.469V98.086h-16.115v45.799H108.864c-16.453,0-29.838,13.386-29.838,29.838v26.133
	c0,15.644,7.005,29.674,18.031,39.148v37.259l-22.224-24.386c-0.676-0.737-1.406-1.466-2.111-2.109
	c-6.001-5.469-13.774-8.482-21.889-8.482c-9.129,0-17.888,3.868-24.035,10.611c-12.073,13.249-11.118,33.85,2.13,45.923
	l68.127,62.083v12.516H56.877c-15.37,0-27.876,12.505-27.876,27.877c0,13.294,9.356,24.437,21.828,27.207l16.817,51.001
	c1.089,3.302,4.174,5.534,7.652,5.534h99.074c20.608,14.882,50.582,27.957,74.946,27.96h0.006c12.571,0,22.437-3.493,29.325-10.381
	c4.548-4.548,7.604-10.484,9.159-17.579h159.559c3.478,0,6.563-2.231,7.652-5.534l16.817-51.003
	c12.472-2.771,21.828-13.914,21.828-27.207C493.666,384.926,481.16,372.419,465.79,372.419z M95.139,199.856v-26.133
	c0-7.568,6.156-13.723,13.723-13.723h304.94c7.568,0,13.725,6.156,13.725,13.723v26.133c0,19.577-15.928,35.505-35.505,35.505
	c-19.579,0-35.506-15.928-35.506-35.505c0-4.45-3.608-8.057-8.057-8.057s-8.057,3.608-8.057,8.057
	c0,19.577-15.928,35.505-35.505,35.505s-35.504-15.928-35.504-35.505c0-4.45-3.608-8.057-8.057-8.057s-8.057,3.608-8.057,8.057
	c0,19.577-15.928,35.505-35.506,35.505c-19.576,0-35.503-15.928-35.503-35.505c0-4.45-3.608-8.057-8.057-8.057
	c-4.45,0-8.057,3.608-8.057,8.057c0,19.577-15.929,35.505-35.508,35.505C111.067,235.361,95.139,219.434,95.139,199.856z
	 M311.724,315.397v-64.374c15.426-2.049,28.723-10.932,36.733-23.5c9.172,14.39,25.271,23.952,43.564,23.952
	c6.947,0,13.573-1.388,19.629-3.887v67.808H311.724z M411.652,331.512v40.907h-99.926v-40.907H411.652z M132.719,315.397
	l-19.548-21.451v-45.52c5.461,1.97,11.343,3.05,17.474,3.05c18.293,0,34.393-9.563,43.564-23.952
	c9.172,14.39,25.27,23.952,43.562,23.952s34.392-9.563,43.564-23.952c7.58,11.894,19.902,20.473,34.276,23.097v64.776
	L132.719,315.397L132.719,315.397z M295.609,331.512v40.907h-60.418c-11.654-7.144-24.851-11.063-37.985-11.063
	c-6.895,0-13.514,1.053-19.748,3.135l-30.053-32.979H295.609z M56.877,412.057c-6.485,0-11.761-5.276-11.761-11.761
	c0-6.486,5.276-11.762,11.761-11.762h71.597l13.048,11.89c-1.264,3.783-2.14,7.677-2.644,11.632H56.877V412.057z M81.127,467.925
	l-13.109-39.753h70.831c1.677,14.043,7.727,28.001,17.669,39.753H81.127z M267.256,490.224c-3.757,3.757-9.788,5.661-17.931,5.661
	h-0.004c-25.026-0.003-60.581-18.118-76.838-34.375c-16.966-16.966-22.633-41.08-14.102-60.005c1.433-3.179,0.659-6.919-1.919-9.267
	L39.783,285.909c-6.68-6.088-7.161-16.477-1.074-23.158c3.099-3.401,7.519-5.351,12.124-5.351c4.089,0,8.008,1.519,11.032,4.276
	c0.358,0.326,0.736,0.705,1.076,1.075l106.33,116.68c2.348,2.577,6.088,3.352,9.267,1.919c5.708-2.574,11.989-3.878,18.669-3.878
	c14.844,0,29.91,6.553,41.337,17.98C261.219,418.128,283.964,473.516,267.256,490.224z M441.54,467.925h-152.66
	c-0.475-7.974-2.253-16.818-5.363-26.363c-1.45-4.451-3.175-8.943-5.098-13.39h176.228L441.54,467.925z M465.79,412.057H270.423
	c-4.967-8.82-10.567-16.932-16.331-23.522h211.697c6.485,0,11.761,5.276,11.761,11.762
	C477.551,406.781,472.275,412.057,465.79,412.057z M262.412,88.816c17.244,0,31.273-14.03,31.273-31.273
	c0-4.313-1.303-12.465-12.573-33.374c-5.87-10.892-11.65-20.037-11.893-20.422C267.742,1.414,265.173,0,262.412,0
	s-5.33,1.414-6.807,3.747c-0.244,0.385-6.023,9.53-11.893,20.422C232.443,45.078,231.14,53.23,231.14,57.543
	C231.139,74.786,245.168,88.816,262.412,88.816z M262.412,23.663c8.132,14.143,15.158,28.803,15.158,33.88
	c0,8.358-6.799,15.158-15.158,15.158c-8.358,0-15.158-6.8-15.158-15.158C247.254,52.466,254.28,37.807,262.412,23.663z"/>
<g>
</g>
<g>
</g>
<g>
</g>
<g>
</g>
<g>
</g>
<g>
</g>
<g>
</g>
<g>
</g>
<g>
</g>
<g>
</g>
<g>
</g>
<g>
</g>
<g>
</g>
<g>
</g>
<g>
</g>
</svg>
