<?xml version="1.0" encoding="iso-8859-1"?>
<!-- Generator: Adobe Illustrator 19.0.0, SVG Export Plug-In . SVG Version: 6.00 Build 0)  -->
<svg version="1.1" id="Layer_1" xmlns="http://www.w3.org/2000/svg" xmlns:xlink="http://www.w3.org/1999/xlink" x="0px" y="0px"
	 viewBox="0 0 512 512" style="enable-background:new 0 0 512 512;" xml:space="preserve">
<path style="fill:#F7B239;" d="M409.852,256.007c0,12.475,2.239,24.414,6.334,35.46c14.412,38.936,51.878,66.674,95.814,66.674
	V224.806v-70.947C455.588,153.859,409.852,199.595,409.852,256.007z"/>
<path style="fill:#F95428;" d="M512,153.859v70.947c-43.937,0-81.389,27.739-95.801,66.661h-0.014
	c-4.094-11.046-6.334-22.985-6.334-35.46C409.852,199.595,455.588,153.859,512,153.859z"/>
<path style="fill:#F7B239;" d="M95.801,220.533C81.389,181.598,43.937,153.859,0,153.859v133.349v70.933
	c56.412,0,102.134-45.723,102.134-102.134C102.134,243.532,99.895,231.579,95.801,220.533z"/>
<path style="fill:#F95428;" d="M95.801,220.533c4.094,11.046,6.334,22.999,6.334,35.474c0,56.412-45.723,102.134-102.134,102.134
	v-70.933c43.937,0,81.375-27.752,95.787-66.674H95.801z"/>
<path style="fill:#F7B239;" d="M310.941,98.107c-17.201-5.99-35.68-9.246-54.928-9.246s-37.741,3.256-54.955,9.246v0.014
	c-65.314,22.71-112.191,84.823-112.191,157.886c0,73.049,46.877,135.162,112.191,157.873c17.215,6.004,35.707,9.26,54.955,9.26
	s37.727-3.256,54.928-9.246c65.314-22.71,112.205-84.837,112.205-157.886C423.146,182.944,376.255,120.818,310.941,98.107z"/>
<path id="SVGCleanerId_0" style="fill:#F95428;" d="M310.941,98.107v315.786c-17.201,5.99-35.68,9.246-54.928,9.246
	s-37.741-3.256-54.955-9.26V98.12v-0.014c17.215-5.99,35.707-9.246,54.955-9.246S293.74,92.117,310.941,98.107z"/>
<g>
	<path id="SVGCleanerId_0_1_" style="fill:#F95428;" d="M310.941,98.107v315.786c-17.201,5.99-35.68,9.246-54.928,9.246
		s-37.741-3.256-54.955-9.26V98.12v-0.014c17.215-5.99,35.707-9.246,54.955-9.246S293.74,92.117,310.941,98.107z"/>
</g>
<path style="fill:#E09B2D;" d="M144.506,256.007c0-49.902,21.878-94.685,56.552-125.306V98.122
	c-65.314,22.71-112.191,84.823-112.191,157.886c0,73.049,46.877,135.162,112.191,157.873v-32.58
	C166.384,350.681,144.506,305.899,144.506,256.007z"/>
<g>
</g>
<g>
</g>
<g>
</g>
<g>
</g>
<g>
</g>
<g>
</g>
<g>
</g>
<g>
</g>
<g>
</g>
<g>
</g>
<g>
</g>
<g>
</g>
<g>
</g>
<g>
</g>
<g>
</g>
</svg>
