<?xml version="1.0" encoding="iso-8859-1"?>
<!-- Generator: Adobe Illustrator 19.0.0, SVG Export Plug-In . SVG Version: 6.00 Build 0)  -->
<svg version="1.1" id="Layer_1" xmlns="http://www.w3.org/2000/svg" xmlns:xlink="http://www.w3.org/1999/xlink" x="0px" y="0px"
	 viewBox="0 0 512 512" style="enable-background:new 0 0 512 512;" xml:space="preserve">
<path style="fill:#F7B239;" d="M467.959,195.307l-77.201,96.961c-11.769-12.165-98.784,89.162-80.045,100.512l-54.707,68.707
	L44.053,195.295c18.799-57.742,131.812-109.33,211.953-109.33C336.135,85.965,453.958,145.951,467.959,195.307z"/>
<circle style="fill:#F95428;" cx="335.223" cy="193.369" r="19.795"/>
<path style="fill:#82B528;" d="M390.757,292.267l-80.045,100.512c-18.739-11.349-31.264-31.936-31.264-55.451
	c0-35.775,28.997-64.784,64.772-64.784C362.492,272.544,378.988,280.102,390.757,292.267z"/>
<circle style="fill:#F95428;" cx="182.464" cy="213.14" r="44.989"/>
<path style="fill:#B27214;" d="M512,139.988l-44.041,55.319c-58.138-46.381-131.824-74.082-211.953-74.082
	c-80.141,0-153.815,27.701-211.953,74.07L0,139.964c70.231-55.978,159.201-89.45,256.006-89.45
	C352.799,50.514,441.781,83.986,512,139.988z"/>
<g>
	<circle style="fill:#82B528;" cx="396.408" cy="196.968" r="8.998"/>
	<circle style="fill:#82B528;" cx="187.671" cy="295.932" r="8.998"/>
</g>
<circle style="fill:#F95428;" cx="254.254" cy="371.514" r="8.998"/>
<g>
</g>
<g>
</g>
<g>
</g>
<g>
</g>
<g>
</g>
<g>
</g>
<g>
</g>
<g>
</g>
<g>
</g>
<g>
</g>
<g>
</g>
<g>
</g>
<g>
</g>
<g>
</g>
<g>
</g>
</svg>
